<?xml version="1.0" encoding="UTF-8"?>
<svg width="32px" height="40px" viewBox="0 0 32 40" version="1.1" xmlns="http://www.w3.org/2000/svg" xmlns:xlink="http://www.w3.org/1999/xlink">
    <!-- Generator: Sketch 47.1 (45422) - http://www.bohemiancoding.com/sketch -->
    <title>Group</title>
    <desc>Created with Sketch.</desc>
    <defs></defs>
    <g id="landing" stroke="none" stroke-width="1" fill="none" fill-rule="evenodd" stroke-linecap="round" stroke-linejoin="round">
        <g id="landing-page-(email-capture)-copy" transform="translate(-226.000000, -192.000000)" fill-rule="nonzero" fill="#C4C4C4">
            <g id="copy-2" transform="translate(227.000000, 193.000000)">
                <g id="Group">
                    <path d="M29,10.4142136 L19.5857864,1 L5,1 L5,33 L29,33 L29,10.4142136 Z M30,35 L4,35 C3.44771525,35 3,34.5522847 3,34 L3,0 C3,-0.55228475 3.44771525,-1 4,-1 L20,-1 C20.2652165,-1 20.5195704,-0.89464316 20.7071068,-0.707106781 L30.7071068,9.29289322 C30.8946432,9.4804296 31,9.73478351 31,10 L31,34 C31,34.5522847 30.5522847,35 30,35 Z" id="Shape"></path>
                    <path d="M25,37 L1,37 L1,5 L4,5 C4.55228475,5 5,4.55228475 5,4 C5,3.44771525 4.55228475,3 4,3 L0,3 C-0.55228475,3 -1,3.44771525 -1,4 L-1,38 C-1,38.5522847 -0.55228475,39 0,39 L26,39 C26.5522847,39 27,38.5522847 27,38 L27,34 C27,33.4477153 26.5522847,33 26,33 C25.4477153,33 25,33.4477153 25,34 L25,37 Z" id="Shape"></path>
                    <path d="M21,0 C21,-0.55228475 20.5522847,-1 20,-1 C19.4477153,-1 19,-0.55228475 19,0 L19,10 C19,10.5522847 19.4477153,11 20,11 L30,11 C30.5522847,11 31,10.5522847 31,10 C31,9.44771525 30.5522847,9 30,9 L21,9 L21,0 Z" id="Shape"></path>
                </g>
            </g>
        </g>
    </g>
</svg>