<?xml version="1.0" encoding="UTF-8"?>
<svg width="500px" height="500px" viewBox="0 0 500 500" version="1.1" xmlns="http://www.w3.org/2000/svg" xmlns:xlink="http://www.w3.org/1999/xlink">
    <!-- Generator: Sketch 48.2 (47327) - http://www.bohemiancoding.com/sketch -->
    <title>pattern-2</title>
    <desc>Created with Sketch.</desc>
    <defs></defs>
    <g id="home" stroke="none" stroke-width="1" fill="none" fill-rule="evenodd">
        <g id="pattern-2" fill="#F3F3F3">
            <rect id="Rectangle-2-Copy" transform="translate(450.816343, 20.676432) scale(-1, -1) rotate(-243.000000) translate(-450.816343, -20.676432) " x="444.316343" y="14.1764316" width="13" height="13"></rect>
            <rect id="Rectangle-2-Copy" transform="translate(227.653504, 152.877937) rotate(-267.000000) translate(-227.653504, -152.877937) " x="220.653504" y="145.877937" width="14" height="14"></rect>
            <rect id="Rectangle-2-Copy" transform="translate(126.461395, 387.322972) scale(-1, -1) rotate(-279.000000) translate(-126.461395, -387.322972) " x="118.461395" y="379.322972" width="16" height="16"></rect>
            <rect id="Rectangle-2-Copy" transform="translate(31.220554, 439.577024) scale(-1, -1) rotate(-217.000000) translate(-31.220554, -439.577024) " x="23.2205539" y="431.577024" width="16" height="16"></rect>
            <polygon id="Triangle-Copy" transform="translate(397.834729, 348.432158) scale(1, -1) rotate(-158.000000) translate(-397.834729, -348.432158) " points="397.834729 335.432158 410.834729 361.432158 384.834729 361.432158"></polygon>
            <polygon id="Triangle-Copy" transform="translate(366.452706, 313.697164) scale(-1, 1) rotate(-346.000000) translate(-366.452706, -313.697164) " points="366.452706 302.697164 377.452706 324.697164 355.452706 324.697164"></polygon>
            <polygon id="Triangle-Copy" transform="translate(376.092284, 150.056691) rotate(-26.000000) translate(-376.092284, -150.056691) " points="376.092284 138.556691 387.592284 161.556691 364.592284 161.556691"></polygon>
            <polygon id="Triangle-Copy" transform="translate(13.581901, 295.707409) scale(-1, 1) rotate(-89.000000) translate(-13.581901, -295.707409) " points="13.5819012 285.207409 24.0819012 306.207409 3.08190121 306.207409"></polygon>
            <polygon id="Triangle-Copy" transform="translate(22.339390, 126.484344) scale(1, -1) rotate(-311.000000) translate(-22.339390, -126.484344) " points="22.3393897 114.484344 34.3393897 138.484344 10.3393897 138.484344"></polygon>
            <path d="M281.204454,372.286483 C286.08746,372.286483 290.045918,368.328025 290.045918,363.44502 C290.045918,358.562014 286.08746,354.603556 281.204454,354.603556 C276.321449,354.603556 272.362991,358.562014 272.362991,363.44502 C272.362991,368.328025 276.321449,372.286483 281.204454,372.286483 Z M281.204454,377.94502 C273.196326,377.94502 266.704454,371.453149 266.704454,363.44502 C266.704454,355.436891 273.196326,348.94502 281.204454,348.94502 C289.212583,348.94502 295.704454,355.436891 295.704454,363.44502 C295.704454,371.453149 289.212583,377.94502 281.204454,377.94502 Z" id="Oval-Copy-4" fill-rule="nonzero" transform="translate(281.204454, 363.445020) rotate(-67.000000) translate(-281.204454, -363.445020) "></path>
            <path d="M306.65522,275.891801 C310.696328,275.891801 313.972293,272.615836 313.972293,268.574728 C313.972293,264.53362 310.696328,261.257655 306.65522,261.257655 C302.614112,261.257655 299.338146,264.53362 299.338146,268.574728 C299.338146,272.615836 302.614112,275.891801 306.65522,275.891801 Z M306.65522,280.574728 C300.027803,280.574728 294.65522,275.202145 294.65522,268.574728 C294.65522,261.947311 300.027803,256.574728 306.65522,256.574728 C313.282637,256.574728 318.65522,261.947311 318.65522,268.574728 C318.65522,275.202145 313.282637,280.574728 306.65522,280.574728 Z" id="Oval-Copy-4" fill-rule="nonzero" transform="translate(306.655220, 268.574728) scale(-1, -1) rotate(-203.000000) translate(-306.655220, -268.574728) "></path>
            <path d="M188.517884,201.812605 C192.222233,201.812605 195.225201,198.809637 195.225201,195.105288 C195.225201,191.400939 192.222233,188.397971 188.517884,188.397971 C184.813535,188.397971 181.810567,191.400939 181.810567,195.105288 C181.810567,198.809637 184.813535,201.812605 188.517884,201.812605 Z M188.517884,206.105288 C182.442752,206.105288 177.517884,201.18042 177.517884,195.105288 C177.517884,189.030156 182.442752,184.105288 188.517884,184.105288 C194.593016,184.105288 199.517884,189.030156 199.517884,195.105288 C199.517884,201.18042 194.593016,206.105288 188.517884,206.105288 Z" id="Oval-Copy-4" fill-rule="nonzero" transform="translate(188.517884, 195.105288) rotate(-92.000000) translate(-188.517884, -195.105288) "></path>
            <path d="M132.069628,197.741712 C136.110736,197.741712 139.386701,194.465747 139.386701,190.424639 C139.386701,186.383531 136.110736,183.107566 132.069628,183.107566 C128.02852,183.107566 124.752555,186.383531 124.752555,190.424639 C124.752555,194.465747 128.02852,197.741712 132.069628,197.741712 Z M132.069628,202.424639 C125.442211,202.424639 120.069628,197.052056 120.069628,190.424639 C120.069628,183.797222 125.442211,178.424639 132.069628,178.424639 C138.697045,178.424639 144.069628,183.797222 144.069628,190.424639 C144.069628,197.052056 138.697045,202.424639 132.069628,202.424639 Z" id="Oval-Copy-4" fill-rule="nonzero" transform="translate(132.069628, 190.424639) scale(-1, -1) rotate(-315.000000) translate(-132.069628, -190.424639) "></path>
            <path d="M479.16482,416.246475 C487.078657,416.246475 493.494089,409.831043 493.494089,401.917207 C493.494089,394.003371 487.078657,387.587939 479.16482,387.587939 C471.250984,387.587939 464.835552,394.003371 464.835552,401.917207 C464.835552,409.831043 471.250984,416.246475 479.16482,416.246475 Z M479.16482,425.417207 C466.186129,425.417207 455.66482,414.895899 455.66482,401.917207 C455.66482,388.938515 466.186129,378.417207 479.16482,378.417207 C492.143512,378.417207 502.66482,388.938515 502.66482,401.917207 C502.66482,414.895899 492.143512,425.417207 479.16482,425.417207 Z" id="Oval-Copy-3" fill-rule="nonzero" transform="translate(479.164820, 401.917207) scale(-1, -1) rotate(-327.000000) translate(-479.164820, -401.917207) "></path>
            <path d="M448.841354,130.468236 C454.397877,130.468236 458.902329,125.963784 458.902329,120.40726 C458.902329,114.850737 454.397877,110.346285 448.841354,110.346285 C443.28483,110.346285 438.780378,114.850737 438.780378,120.40726 C438.780378,125.963784 443.28483,130.468236 448.841354,130.468236 Z M448.841354,136.90726 C439.728655,136.90726 432.341354,129.519959 432.341354,120.40726 C432.341354,111.294562 439.728655,103.90726 448.841354,103.90726 C457.954052,103.90726 465.341354,111.294562 465.341354,120.40726 C465.341354,129.519959 457.954052,136.90726 448.841354,136.90726 Z" id="Oval-Copy-3" fill-rule="nonzero" transform="translate(448.841354, 120.407260) rotate(-343.000000) translate(-448.841354, -120.407260) "></path>
            <path d="M273.6598,165.290412 C279.889841,165.290412 284.940288,160.239965 284.940288,154.009924 C284.940288,147.779882 279.889841,142.729436 273.6598,142.729436 C267.429759,142.729436 262.379312,147.779882 262.379312,154.009924 C262.379312,160.239965 267.429759,165.290412 273.6598,165.290412 Z M273.6598,172.509924 C263.442532,172.509924 255.1598,164.227192 255.1598,154.009924 C255.1598,143.792656 263.442532,135.509924 273.6598,135.509924 C283.877068,135.509924 292.1598,143.792656 292.1598,154.009924 C292.1598,164.227192 283.877068,172.509924 273.6598,172.509924 Z" id="Oval-Copy-3" fill-rule="nonzero" transform="translate(273.659800, 154.009924) rotate(-194.000000) translate(-273.659800, -154.009924) "></path>
            <path d="M192.005032,65.908654 C197.729934,65.908654 202.370885,61.2677033 202.370885,55.5428004 C202.370885,49.8178975 197.729934,45.1769467 192.005032,45.1769467 C186.280129,45.1769467 181.639178,49.8178975 181.639178,55.5428004 C181.639178,61.2677033 186.280129,65.908654 192.005032,65.908654 Z M192.005032,72.5428004 C182.616191,72.5428004 175.005032,64.9316411 175.005032,55.5428004 C175.005032,46.1539596 182.616191,38.5428004 192.005032,38.5428004 C201.393872,38.5428004 209.005032,46.1539596 209.005032,55.5428004 C209.005032,64.9316411 201.393872,72.5428004 192.005032,72.5428004 Z" id="Oval-Copy-3" fill-rule="nonzero" transform="translate(192.005032, 55.542800) scale(-1, 1) rotate(-43.000000) translate(-192.005032, -55.542800) "></path>
            <path d="M41.7895798,230.285781 C50.0401751,230.285781 56.7286042,223.597352 56.7286042,215.346757 C56.7286042,207.096161 50.0401751,200.407732 41.7895798,200.407732 C33.5389844,200.407732 26.8505554,207.096161 26.8505554,215.346757 C26.8505554,223.597352 33.5389844,230.285781 41.7895798,230.285781 Z M41.7895798,239.846757 C28.2586034,239.846757 17.2895798,228.877733 17.2895798,215.346757 C17.2895798,201.81578 28.2586034,190.846757 41.7895798,190.846757 C55.3205562,190.846757 66.2895798,201.81578 66.2895798,215.346757 C66.2895798,228.877733 55.3205562,239.846757 41.7895798,239.846757 Z" id="Oval-Copy-3" fill-rule="nonzero" transform="translate(41.789580, 215.346757) scale(1, -1) rotate(-95.000000) translate(-41.789580, -215.346757) "></path>
            <path d="M78.2961294,75.4921115 C83.8526528,75.4921115 88.357105,70.9876593 88.357105,65.4311359 C88.357105,59.8746125 83.8526528,55.3701603 78.2961294,55.3701603 C72.739606,55.3701603 68.2351538,59.8746125 68.2351538,65.4311359 C68.2351538,70.9876593 72.739606,75.4921115 78.2961294,75.4921115 Z M78.2961294,81.9311359 C69.183431,81.9311359 61.7961294,74.5438343 61.7961294,65.4311359 C61.7961294,56.3184376 69.183431,48.9311359 78.2961294,48.9311359 C87.4088278,48.9311359 94.7961294,56.3184376 94.7961294,65.4311359 C94.7961294,74.5438343 87.4088278,81.9311359 78.2961294,81.9311359 Z" id="Oval-Copy-3" fill-rule="nonzero" transform="translate(78.296129, 65.431136) scale(1, -1) rotate(-330.000000) translate(-78.296129, -65.431136) "></path>
            <path d="M360.397551,220.366119 L367.849525,218.370651 L368.961511,209.641316 C372.615085,210.285398 375.397551,213.596637 375.397551,217.584633 C375.397551,222.034216 371.9337,225.641316 367.660824,225.641316 C364.326726,225.641316 361.485211,223.445105 360.397551,220.366119 Z" id="Combined-Shape" transform="translate(367.897551, 217.641316) scale(-1, 1) rotate(-53.000000) translate(-367.897551, -217.641316) "></path>
            <path d="M362.505459,54.9663485 L369.957432,52.9708806 L371.069419,44.2415458 C374.722993,44.8856272 377.505459,48.1968671 377.505459,52.1848627 C377.505459,56.6344459 374.041608,60.2415458 369.768732,60.2415458 C366.434634,60.2415458 363.593118,58.0453349 362.505459,54.9663485 Z" id="Combined-Shape" transform="translate(370.005459, 52.241546) rotate(-296.000000) translate(-370.005459, -52.241546) "></path>
            <path d="M207.39969,470.347048 L215.84526,468.102147 L217.105511,458.281645 C221.246229,459.006237 224.39969,462.731382 224.39969,467.217877 C224.39969,472.223658 220.473993,476.281645 215.631399,476.281645 C211.852755,476.281645 208.632371,473.810908 207.39969,470.347048 Z" id="Combined-Shape" transform="translate(215.899690, 467.281645) scale(-1, 1) rotate(-63.000000) translate(-215.899690, -467.281645) "></path>
            <path d="M222.000032,370.976417 L228.458409,369.230383 L229.422131,361.592215 C232.588562,362.155786 235.000032,365.053121 235.000032,368.542617 C235.000032,372.436003 231.998028,375.592215 228.294869,375.592215 C225.405317,375.592215 222.94267,373.670531 222.000032,370.976417 Z" id="Combined-Shape" transform="translate(228.500032, 368.592215) scale(1, -1) rotate(-291.000000) translate(-228.500032, -368.592215) "></path>
            <path d="M135.902826,9.99186862 L142.361203,8.24583424 L143.324924,0.607666334 C146.491355,1.17123756 148.902826,4.06857241 148.902826,7.55806861 C148.902826,11.4514539 145.900822,14.6076663 142.197662,14.6076663 C139.308111,14.6076663 136.845464,12.6859818 135.902826,9.99186862 Z" id="Combined-Shape" transform="translate(142.402826, 7.607666) scale(-1, -1) rotate(-54.000000) translate(-142.402826, -7.607666) "></path>
            <path d="M426.758746,473.854059 L435.701114,471.484441 L437.035498,461.118356 C441.419787,461.883202 444.758746,465.8153 444.758746,470.551044 C444.758746,475.834925 440.602125,480.118356 435.474674,480.118356 C431.473757,480.118356 428.063938,477.510355 426.758746,473.854059 Z" id="Combined-Shape" transform="translate(435.758746, 470.618356) scale(-1, 1) rotate(-294.000000) translate(-435.758746, -470.618356) "></path>
            <path d="M446.354309,188.229102 L453.309484,186.358351 L454.347338,178.174599 C457.757341,178.778426 460.354309,181.882713 460.354309,185.621459 C460.354309,189.792943 457.121382,193.174599 453.133364,193.174599 C450.021539,193.174599 447.369458,191.115652 446.354309,188.229102 Z" id="Combined-Shape" transform="translate(453.354309, 185.674599) scale(-1, 1) rotate(-56.000000) translate(-453.354309, -185.674599) "></path>
            <path d="M312.785381,461.930943 L324.21174,458.937741 L325.916786,445.843739 C331.518933,446.809861 335.785381,451.776721 335.785381,457.758715 C335.785381,464.433089 330.474143,469.843739 323.922399,469.843739 C318.810116,469.843739 314.453125,466.549423 312.785381,461.930943 Z" id="Combined-Shape" transform="translate(324.285381, 457.843739) scale(-1, -1) rotate(-261.000000) translate(-324.285381, -457.843739) "></path>
            <path d="M258.689592,44.6845427 L270.115951,41.6913409 L271.820997,28.5973388 C277.423144,29.5634609 281.689592,34.5303206 281.689592,40.5123141 C281.689592,47.1866889 276.378354,52.5973388 269.82661,52.5973388 C264.714327,52.5973388 260.357336,49.3030224 258.689592,44.6845427 Z" id="Combined-Shape" transform="translate(270.189592, 40.597339) scale(-1, -1) rotate(-314.000000) translate(-270.189592, -40.597339) "></path>
            <path d="M107.518111,445.263699 L117.454075,442.644647 L118.936724,431.187396 C123.808156,432.032752 127.518111,436.378755 127.518111,441.612999 C127.518111,447.453077 122.899643,452.187396 117.202474,452.187396 C112.757011,452.187396 108.968323,449.304869 107.518111,445.263699 Z" id="Combined-Shape" transform="translate(117.518111, 441.687396) scale(-1, -1) rotate(-301.000000) translate(-117.518111, -441.687396) "></path>
            <path d="M135.654556,323.430129 L143.603327,321.309944 L144.789446,312.035026 C148.686592,312.719363 151.654556,316.237555 151.654556,320.474801 C151.654556,325.202483 147.959782,329.035026 143.402047,329.035026 C139.845676,329.035026 136.814726,326.701552 135.654556,323.430129 Z" id="Combined-Shape" transform="translate(143.654556, 320.535026) rotate(-218.000000) translate(-143.654556, -320.535026) "></path>
            <path d="M126.482409,127.338244 L136.418373,124.719193 L137.901022,113.261941 C142.772454,114.107298 146.482409,118.4533 146.482409,123.687544 C146.482409,129.527622 141.863941,134.261941 136.166773,134.261941 C131.721309,134.261941 127.932622,131.379414 126.482409,127.338244 Z" id="Combined-Shape" transform="translate(136.482409, 123.761941) scale(-1, 1) rotate(-314.000000) translate(-136.482409, -123.761941) "></path>
            <path d="M465.376068,281.812317 C465.043724,280.704727 464.864263,279.523861 464.864263,278.298153 C464.864263,271.954701 469.670958,266.812317 475.600317,266.812317 C479.548757,266.812317 482.999362,269.09266 484.864263,272.489502 L465.376068,281.812317 Z" id="Combined-Shape-Copy" transform="translate(474.864263, 274.312317) rotate(-178.000000) translate(-474.864263, -274.312317) "></path>
            <path d="M359.369978,471.566498 C359.070868,470.606587 358.909353,469.58317 358.909353,468.520889 C358.909353,463.023231 363.235378,458.566498 368.571801,458.566498 C372.125397,458.566498 375.230942,460.542795 376.909353,463.486725 L359.369978,471.566498 Z" id="Combined-Shape-Copy" transform="translate(367.909353, 465.066498) scale(-1, 1) rotate(-33.000000) translate(-367.909353, -465.066498) "></path>
            <path d="M269.597405,216.288534 C269.26506,215.180944 269.085599,214.000078 269.085599,212.774369 C269.085599,206.430917 273.892294,201.288534 279.821653,201.288534 C283.770093,201.288534 287.220698,203.568876 289.085599,206.965718 L269.597405,216.288534 Z" id="Combined-Shape-Copy" transform="translate(279.085599, 208.788534) scale(-1, -1) rotate(-239.000000) translate(-279.085599, -208.788534) "></path>
            <path d="M228.400328,308.735236 C228.034749,307.553807 227.837342,306.294217 227.837342,304.986794 C227.837342,298.220446 233.124707,292.735236 239.647001,292.735236 C243.990285,292.735236 247.785951,295.167602 249.837342,298.7909 L228.400328,308.735236 Z" id="Combined-Shape-Copy" transform="translate(238.837342, 300.735236) scale(-1, 1) rotate(-304.000000) translate(-238.837342, -300.735236) "></path>
            <path d="M49.286399,388.56986 C49.0537578,387.831467 48.9281352,387.044223 48.9281352,386.227084 C48.9281352,381.998116 52.2928218,378.56986 56.4433729,378.56986 C59.207281,378.56986 61.6227046,380.090089 62.9281352,382.35465 L49.286399,388.56986 Z" id="Combined-Shape-Copy" transform="translate(55.928135, 383.569860) rotate(-292.000000) translate(-55.928135, -383.569860) "></path>
        </g>
    </g>
</svg>